<?xml version="1.0" encoding="UTF-8" standalone="no"?><!-- Generator: Gravit.io --><svg xmlns="http://www.w3.org/2000/svg" xmlns:xlink="http://www.w3.org/1999/xlink" style="isolation:isolate" viewBox="2605 57 1020 582" width="1020pt" height="582pt"><defs><clipPath id="_clipPath_ZoUzQSRO2oYEgT9Wdl4Za1AUfCMEpAZF"><rect x="2605" y="57" width="1020" height="582"/></clipPath></defs><g clip-path="url(#_clipPath_ZoUzQSRO2oYEgT9Wdl4Za1AUfCMEpAZF)"><linearGradient id="_lgradient_0" x1="0" y1="0.5" x2="1" y2="0.5" gradientTransform="matrix(1020,0,0,582,2605,57)" gradientUnits="userSpaceOnUse"><stop offset="0%" stop-opacity="1" style="stop-color:rgb(255,255,255)"/><stop offset="100%" stop-opacity="1" style="stop-color:rgb(230,230,230)"/></linearGradient><rect x="2605" y="57" width="1020" height="582" transform="matrix(1,0,0,1,0,0)" fill="url(#_lgradient_0)"/><path d=" M 2731.201 181.965 L 2711.59 162.026 C 2685.521 192.298 2673.803 235.943 2684.029 279.003 C 2699.938 345.994 2762.983 386.361 2824.699 369.1 C 2831.664 367.152 2838.317 364.553 2844.616 361.378 L 2833.695 335.913 C 2828.822 338.418 2823.664 340.458 2818.257 341.97 C 2771.392 355.078 2723.349 323.632 2711.038 271.792 C 2703.179 238.699 2711.769 205.244 2731.201 181.965 Z " fill-rule="evenodd" fill="rgb(0,0,0)"/><path d=" M 2852.145 164.782 L 2862.995 140.044 C 2810.546 112.989 2748.781 121.944 2711.01 162.723 L 2731.17 182.169 C 2760.285 149.155 2809.983 142.309 2852.145 164.782 Z " fill-rule="evenodd" fill="rgb(0,0,0)"/><rect x="2814" y="358.568" width="25.616" height="173.432" transform="matrix(1,0,0,1,0,0)" fill="rgb(0,0,0)"/><rect x="2746.357" y="340.072" width="153.397" height="27.964" transform="matrix(0.941,-0.337,0.337,0.941,45.877,972.338)" fill="rgb(0,0,0)"/><path d=" M 2863.328 325.067 C 2863.554 326.336 2863.897 327.595 2864.364 328.833 C 2869.121 341.445 2884.932 347.177 2899.65 341.625 C 2914.367 336.073 2922.453 321.327 2917.696 308.715 C 2917.229 307.477 2916.655 306.305 2915.986 305.203 L 2863.328 325.067 Z " fill-rule="evenodd" fill="rgb(0,0,0)"/><path d=" M 2723.268 375.323 C 2723.494 376.591 2723.837 377.85 2724.304 379.089 C 2729.062 391.7 2744.873 397.432 2759.59 391.881 C 2774.307 386.329 2782.393 371.583 2777.636 358.971 C 2777.169 357.733 2776.595 356.561 2775.926 355.459 L 2723.268 375.323 Z " fill-rule="evenodd" fill="rgb(0,0,0)"/><g><path d=" M 2886 154.963 C 2881.86 165.834 2866.555 170.134 2851.842 164.56 C 2837.13 158.986 2828.547 145.635 2832.687 134.764 L 2886 154.963 Z " fill-rule="evenodd" fill="rgb(0,0,0)"/></g><g clip-path="url(#_clipPath_c4rgtRTI1raAYepB9V1pUQOJatNP7E0J)"><text transform="matrix(1,0,0,1,2939,357.738)" style="font-family:'Playfair Display SC';font-weight:700;font-size:100px;font-style:normal;fill:#000000;stroke:none;">OUNSELING</text></g><defs><clipPath id="_clipPath_c4rgtRTI1raAYepB9V1pUQOJatNP7E0J"><rect x="0" y="0" width="587" height="133.3" transform="matrix(1,0,0,1,2939,249.538)"/></clipPath></defs><g clip-path="url(#_clipPath_0wf0118EQk9cS7HNvSoHV7rEqXNbQtB5)"><text transform="matrix(1,0,0,1,2858.823,532.2)" style="font-family:'Playfair Display SC';font-weight:700;font-size:100px;font-style:normal;fill:#000000;stroke:none;">HERAPY.COM</text></g><defs><clipPath id="_clipPath_0wf0118EQk9cS7HNvSoHV7rEqXNbQtB5"><rect x="0" y="0" width="662" height="133.3" transform="matrix(1,0,0,1,2858.823,424)"/></clipPath></defs><path d="M 2861.867 139.41 L 2883.622 149.154 C 2886.04 150.237 2887.123 153.079 2886.04 155.495 L 2885.987 155.613 C 2884.903 158.03 2882.061 159.113 2879.643 158.03 L 2857.888 148.286 C 2855.47 147.203 2854.387 144.361 2855.47 141.945 L 2855.523 141.827 C 2856.607 139.41 2859.449 138.327 2861.867 139.41 Z" style="stroke:none;fill:#000000;stroke-miterlimit:10;"/></g></svg>